<svg xmlns="http://www.w3.org/2000/svg" version="1.1" xmlns:xlink="http://www.w3.org/1999/xlink" xmlns:svgjs="http://svgjs.dev/svgjs" width="1500" height="1500" viewBox="0 0 1500 1500"><rect width="1500" height="1500" fill="#ffffff"></rect><g transform="matrix(0.6666666666666666,0,0,0.6666666666666666,249.12749914471436,229.42186234817814)"><svg viewBox="0 0 237 247" data-background-color="#ffffff" preserveAspectRatio="xMidYMid meet" height="1563" width="1500" xmlns="http://www.w3.org/2000/svg" xmlns:xlink="http://www.w3.org/1999/xlink"><g id="tight-bounds" transform="matrix(1,0,0,1,0.2067827027026965,-0.09999999999999432)"><svg viewBox="0 0 236.5864345945946 247.2" height="247.2" width="236.5864345945946"><g><svg></svg></g><g><svg viewBox="0 0 236.5864345945946 247.2" height="247.2" width="236.5864345945946"><g transform="matrix(1,0,0,1,0,47.215199999999996)"><svg viewBox="0 0 236.5864345945946 152.7696" height="152.7696" width="236.5864345945946"><g><svg viewBox="0 0 236.5864345945946 152.7696" height="152.7696" width="236.5864345945946"><g><svg viewBox="0 0 236.5864345945946 152.7696" height="152.7696" width="236.5864345945946"><g><svg viewBox="0 0 236.5864345945946 152.7696" height="152.7696" width="236.5864345945946"><g id="textblocktransform"><svg viewBox="0 0 236.5864345945946 152.7696" height="152.7696" width="236.5864345945946" id="textblock"><g><svg viewBox="0 0 236.5864345945946 152.7696" height="152.7696" width="236.5864345945946"><g transform="matrix(1,0,0,1,0,0)"><svg width="236.5864345945946" viewBox="5.83 -35.21 55.96 36.13999999999999" height="152.7696" data-palette-color="#152232"><path d="M18.63-13.11L18.63-13.11Q18.16-12.08 17.6-10.64 17.04-9.2 16.38-7.64 15.72-6.08 14.98-4.54 14.23-3 13.42-1.79 12.6-0.59 11.73 0.17 10.86 0.93 9.96 0.93L9.96 0.93Q9.2 0.93 8.72 0.7 8.23 0.46 7.96 0.11 7.69-0.24 7.58-0.67 7.47-1.1 7.47-1.49L7.47-1.49Q7.47-2.08 7.65-2.69 7.84-3.3 8.11-3.81L8.11-3.81 17.46-21.02Q18.07-22.09 18.62-22.71 19.17-23.32 19.64-23.61 20.12-23.9 20.48-23.96 20.85-24.02 21.09-24.02L21.09-24.02Q21.53-24.02 21.9-23.72 22.27-23.41 22.27-22.61L22.27-22.61Q22.27-21.83 21.85-20.46 21.44-19.09 20.31-16.94L20.31-16.94Q22.22-17.09 24.07-17.59 25.93-18.09 27.4-18.97 28.88-19.85 29.79-21.11 30.69-22.36 30.69-24.02L30.69-24.02Q30.69-25.49 30.21-26.82 29.74-28.15 28.82-29.16 27.91-30.18 26.56-30.77 25.22-31.37 23.46-31.37L23.46-31.37Q21.07-31.37 19.35-30.92 17.63-30.47 16.39-29.74 15.16-29 14.33-28.05 13.5-27.1 12.9-26.12 12.3-25.15 11.84-24.19 11.38-23.24 10.88-22.51 10.38-21.78 9.74-21.33 9.11-20.87 8.18-20.87L8.18-20.87Q6.98-20.87 6.41-21.48 5.83-22.09 5.83-23.22 5.83-24.34 6.45-25.67 7.06-27 8.18-28.34 9.3-29.69 10.9-30.92 12.5-32.15 14.5-33.11 16.5-34.06 18.86-34.63 21.22-35.21 23.83-35.21L23.83-35.21Q26.27-35.21 28.53-34.51 30.79-33.81 32.52-32.42 34.25-31.03 35.29-28.94 36.33-26.86 36.33-24.05L36.33-24.05Q36.33-21.48 35.1-19.42 33.86-17.36 31.77-15.93 29.69-14.5 26.95-13.73 24.22-12.96 21.19-12.96L21.19-12.96Q20.56-12.96 19.91-12.99 19.26-13.01 18.63-13.11ZM37.52-21.12L37.52-21.12Q37.52-21.68 37.73-22.28 37.94-22.88 38.35-23.36 38.77-23.85 39.39-24.17 40.01-24.49 40.87-24.49L40.87-24.49Q42.28-24.49 42.84-23.94 43.41-23.39 43.41-22.56L43.41-22.56Q43.41-22.09 43.22-21.53 43.04-20.97 42.67-20.5 42.31-20.02 41.72-19.7 41.14-19.38 40.33-19.38L40.33-19.38Q38.82-19.38 38.21-19.86 37.6-20.34 37.52-21.12ZM34.84-15.63L34.84-15.63Q35.25-16.31 35.79-16.6 36.33-16.89 36.89-16.89L36.89-16.89Q37.81-16.89 38.49-16.3 39.16-15.7 39.16-14.77L39.16-14.77Q39.13-14.55 39.1-14.33 39.06-14.11 38.94-13.89L38.94-13.89Q38.6-13.26 38.38-12.82 38.16-12.38 37.97-12 37.79-11.62 37.62-11.25 37.45-10.89 37.2-10.38L37.2-10.38Q36.91-9.77 36.55-9.05 36.18-8.33 35.85-7.57 35.52-6.81 35.29-6.08 35.06-5.35 35.06-4.74L35.06-4.74Q35.06-4.08 35.39-3.87 35.72-3.66 36.33-3.66L36.33-3.66Q37.01-3.66 37.75-3.96 38.5-4.25 39.26-4.71 40.01-5.18 40.74-5.77 41.48-6.37 42.12-6.98 42.77-7.59 43.32-8.15 43.87-8.72 44.24-9.16L44.24-9.16Q44.72-9.62 45.21-9.62L45.21-9.62Q45.65-9.62 45.93-9.23 46.21-8.84 46.21-8.23L46.21-8.23Q46.21-7.67 45.93-7.03 45.65-6.4 45.02-5.83L45.02-5.83Q43.77-4.57 42.48-3.41 41.18-2.25 39.83-1.35 38.47-0.46 37.11 0.07 35.74 0.61 34.35 0.61L34.35 0.61Q32.37 0.61 31.24-0.4 30.1-1.42 30.1-3.56L30.1-3.56Q30.1-4.69 30.42-5.76 30.73-6.84 31.17-7.85 31.61-8.86 32.1-9.8 32.59-10.74 32.93-11.6L32.93-11.6Q33.05-11.91 33.36-12.57 33.66-13.23 34.01-13.92L34.01-13.92Q34.4-14.72 34.84-15.63ZM57.12-15.5L57.12-15.5Q57.12-14.75 56.95-13.83 56.78-12.92 56.39-12.11 56-11.3 55.39-10.77 54.78-10.23 53.88-10.23L53.88-10.23Q53.39-10.23 53.25-10.38 53.12-10.52 53.12-10.89L53.12-10.89Q53.12-11.11 53.13-11.54 53.14-11.96 53.14-12.35L53.14-12.35Q53.14-12.79 53.02-13.1 52.9-13.4 52.41-13.4L52.41-13.4Q51.85-13.4 51.15-12.98 50.46-12.55 49.76-11.87 49.07-11.18 48.41-10.31 47.75-9.45 47.22-8.56 46.7-7.67 46.39-6.84 46.09-6.01 46.09-5.42L46.09-5.42Q46.09-4.57 46.69-4.08 47.29-3.59 48.31-3.59L48.31-3.59Q49.41-3.59 50.65-3.96 51.9-4.32 53.13-4.88 54.37-5.44 55.51-6.1 56.66-6.76 57.6-7.36 58.54-7.96 59.17-8.39 59.81-8.81 60-8.91L60-8.91Q60.4-9.11 60.74-9.11L60.74-9.11Q61.03-9.11 61.24-8.97 61.45-8.84 61.57-8.65 61.69-8.47 61.74-8.26 61.79-8.06 61.79-7.91L61.79-7.91Q61.79-7.69 61.74-7.39 61.69-7.08 61.37-6.69L61.37-6.69Q61.25-6.54 60.58-5.94 59.91-5.35 58.85-4.54 57.78-3.74 56.4-2.82 55.02-1.9 53.45-1.15 51.87-0.39 50.19 0.11 48.51 0.61 46.87 0.61L46.87 0.61Q45.62 0.61 44.66 0.22 43.7-0.17 43.04-0.84 42.38-1.51 42.04-2.42 41.69-3.32 41.69-4.32L41.69-4.32Q41.69-5.42 42.21-6.85 42.72-8.28 43.62-9.77 44.53-11.25 45.75-12.7 46.97-14.14 48.4-15.26 49.82-16.38 51.37-17.07 52.92-17.75 54.51-17.75L54.51-17.75Q55.05-17.75 55.52-17.63 56-17.5 56.35-17.25 56.71-16.99 56.92-16.55 57.12-16.11 57.12-15.5Z" opacity="1" transform="matrix(1,0,0,1,0,0)" fill="#152232" class="wordmark-text-0" data-fill-palette-color="primary" id="text-0"></path></svg></g></svg></g></svg></g></svg></g><g></g></svg></g></svg></g></svg></g><path d="M0 41.215L0 1 236.586 1 236.586 41.215 222.81 41.215 222.81 14.777 13.777 14.777 13.777 41.215 0 41.215M0 205.985L0 246.2 236.586 246.2 236.586 205.985 222.81 205.985 222.81 232.423 13.777 232.423 13.777 205.985 0 205.985" fill="#5ebc67" stroke="transparent" data-fill-palette-color="tertiary"></path></svg></g><defs></defs></svg><rect width="236.5864345945946" height="247.2" fill="none" stroke="none" visibility="hidden"></rect></g></svg></g></svg>